<?xml version="1.0" encoding="UTF-8"?>
<svg width="32px" height="32px" viewBox="0 0 32 32" version="1.1" xmlns="http://www.w3.org/2000/svg" xmlns:xlink="http://www.w3.org/1999/xlink">
    <!-- Generator: Sketch 52.2 (67145) - http://www.bohemiancoding.com/sketch -->
    <title>gitHub</title>
    <desc>Created with Sketch.</desc>
    <g id="gitHub" stroke="none" stroke-width="1" fill="none" fill-rule="evenodd">
        <path d="M16.0429962,3 C8.82587165,3 3,8.82587165 3,16.0429962 C3,21.7819146 6.73899225,26.6512998 11.9561907,28.390366 C12.6518172,28.4773193 12.8257238,28.1295061 12.8257238,27.7816928 L12.8257238,25.5209068 C9.17368488,26.3034866 8.39110511,23.7818407 8.39110511,23.7818407 C7.78243195,22.3036344 6.91289887,21.8688679 6.91289887,21.8688679 C5.69555255,21.0862881 6.99985218,21.0862881 6.99985218,21.0862881 C8.3041518,21.1732414 8.99977827,22.3905877 8.99977827,22.3905877 C10.1301713,24.3905138 12.0431441,23.7818407 12.8257238,23.4340274 C12.9126771,22.5644943 13.2604904,22.0427745 13.6952569,21.6949613 C10.8257977,21.347148 7.78243195,20.216755 7.78243195,15.2604165 C7.78243195,13.8691635 8.3041518,12.6518172 9.08673157,11.7822841 C8.91282496,11.4344709 8.47805842,10.1301713 9.17368488,8.3041518 C9.17368488,8.3041518 10.3040779,7.95633857 12.7387705,9.60845142 C13.7822102,9.3475915 14.9126032,9.17368488 16.0429962,9.17368488 C17.1733892,9.17368488 18.3037822,9.3475915 19.3472219,9.60845142 C21.8688679,7.95633857 22.9123076,8.3041518 22.9123076,8.3041518 C23.607934,10.1301713 23.1731675,11.4344709 22.9992609,11.7822841 C23.868794,12.6518172 24.3035605,13.8691635 24.3035605,15.2604165 C24.3035605,20.3037083 21.2601947,21.347148 18.3907356,21.6949613 C18.8255021,22.1297278 19.2602686,22.9123076 19.2602686,24.1296539 L19.2602686,27.6947395 C19.2602686,28.0425528 19.5211286,28.4773193 20.1298017,28.3034127 C25.3470002,26.5643465 28.9990392,21.6949613 28.9990392,15.9560429 C29.0859925,8.82587165 23.2601208,3 16.0429962,3 Z" id="Path" fill="#FFFFFF"></path>
    </g>
</svg>