<?xml version="1.0" encoding="UTF-8"?>
<svg width="32px" height="32px" viewBox="0 0 32 32" version="1.1" xmlns="http://www.w3.org/2000/svg" xmlns:xlink="http://www.w3.org/1999/xlink">
    <!-- Generator: Sketch 52.2 (67145) - http://www.bohemiancoding.com/sketch -->
    <title>linkedIn</title>
    <desc>Created with Sketch.</desc>
    <g id="linkedIn" stroke="none" stroke-width="1" fill="none" fill-rule="evenodd">
        <g id="In-Black-0p5in-R" transform="translate(6.000000, 6.000000)" fill="#FFFFFF">
            <path d="M17.1428571,17.0833333 L14.165115,17.0833333 L14.165115,12.5355229 C14.165115,11.4512335 14.1461521,10.0561362 12.6179608,10.0561362 C11.0680178,10.0561362 10.8315386,11.2378593 10.8315386,12.4582292 L10.8315386,17.0833333 L7.85714286,17.0833333 L7.85714286,7.73188118 L10.7116258,7.73188118 L10.7116258,9.01049358 L10.7528981,9.01049358 C11.1500047,8.27511454 12.1215774,7.5 13.5700128,7.5 C16.5856808,7.5 17.1428571,9.43615339 17.1428571,11.9547313 L17.1428571,17.0833333 Z M4.64401071,6.42857143 C3.65483112,6.42857143 2.85714286,5.62870522 2.85714286,4.6425688 C2.85714286,3.65700907 3.65483112,2.85714286 4.64401071,2.85714286 C5.62915282,2.85714286 6.42857143,3.65700907 6.42857143,4.6425688 C6.42857143,5.62870522 5.62915282,6.42857143 4.64401071,6.42857143 Z M3.125,17.1428571 L6.04166667,17.1428571 L6.04166667,7.85714286 L3.125,7.85714286 L3.125,17.1428571 Z M1.47504097,0 C0.661129476,0 0,0.645555556 0,1.44222222 L0,18.5566667 C0,19.3533333 0.661129476,20 1.47504097,20 L18.5205145,20 C19.3360927,20 20,19.3533333 20,18.5566667 L20,1.44222222 C20,0.645555556 19.3360927,0 18.5205145,0 L1.47504097,0 Z" id="Fill-4"></path>
        </g>
    </g>
</svg>