<?xml version="1.0" encoding="UTF-8"?>
<svg width="32px" height="32px" viewBox="0 0 32 32" version="1.1" xmlns="http://www.w3.org/2000/svg" xmlns:xlink="http://www.w3.org/1999/xlink">
    <!-- Generator: Sketch 52.2 (67145) - http://www.bohemiancoding.com/sketch -->
    <title>medium</title>
    <desc>Created with Sketch.</desc>
    <g id="medium" stroke="none" stroke-width="1" fill="none" fill-rule="evenodd">
        <path d="M7.6363619,10.7020727 C7.66307082,10.4381796 7.56243692,10.1773507 7.36538581,9.99974072 L5.35815557,7.58171211 L5.35815557,7.22051282 L11.5906055,7.22051282 L16.4079581,17.7855921 L20.6432139,7.22051282 L26.5846154,7.22051282 L26.5846154,7.58171211 L24.8684336,9.22717557 C24.7204798,9.33995449 24.6470873,9.52531466 24.6777467,9.70877463 L24.6777467,21.7989177 C24.6470873,21.9823777 24.7204798,22.1677378 24.8684336,22.2805168 L26.5444708,23.9259802 L26.5444708,24.2871795 L18.1141038,24.2871795 L18.1141038,23.9259802 L19.850358,22.2403835 C20.0209725,22.0698171 20.0209725,22.0196506 20.0209725,21.7587845 L20.0209725,11.9863369 L15.1935838,24.2470462 L14.5412339,24.2470462 L8.92098924,11.9863369 L8.92098924,20.2036208 C8.87412969,20.5490985 8.98886891,20.896919 9.23210993,21.1467523 L11.490244,23.885847 L11.490244,24.2470462 L5.08717949,24.2470462 L5.08717949,23.885847 L7.34531351,21.1467523 C7.58678352,20.8965048 7.69483221,20.546377 7.6363619,20.2036208 L7.6363619,10.7020727 Z" id="Shape" fill="#FFFFFF"></path>
    </g>
</svg>