<?xml version="1.0" encoding="UTF-8"?>
<svg width="32px" height="32px" viewBox="0 0 32 32" version="1.1" xmlns="http://www.w3.org/2000/svg" xmlns:xlink="http://www.w3.org/1999/xlink">
    <!-- Generator: Sketch 52.2 (67145) - http://www.bohemiancoding.com/sketch -->
    <title>Artboard</title>
    <desc>Created with Sketch.</desc>
    <g id="Artboard" stroke="none" stroke-width="1" fill="none" fill-rule="evenodd">
        <path d="M11.54752,25.9332444 C20.60416,25.9332444 25.55776,18.2909333 25.55776,11.6635556 C25.55776,11.4464889 25.55776,11.2304 25.54336,11.0152889 C26.5070381,10.3053351 27.3389013,9.42628208 28,8.41928889 C27.1013239,8.82487285 26.1479961,9.09085468 25.17184,9.20835556 C26.1997542,8.58158246 26.9690786,7.59577705 27.33664,6.4344 C26.3700712,7.01857853 25.3126203,7.43027842 24.20992,7.65173333 C22.6835995,5.99869663 20.2582906,5.59411008 18.2939673,6.6648426 C16.329644,7.73557511 15.314824,10.0153407 15.81856,12.2257778 C11.8594199,12.0236218 8.17069675,10.1189828 5.6704,6.98586667 C4.36347785,9.2774304 5.03102837,12.2090182 7.19488,13.6807111 C6.41127155,13.6570563 5.6447482,13.4417551 4.96,13.0529778 C4.96,13.0735111 4.96,13.0950222 4.96,13.1165333 C4.96064141,15.5038687 6.61288143,17.5600788 8.9104,18.0328 C8.18547481,18.2341636 7.42487736,18.2635989 6.68704,18.1188444 C7.33211001,20.1618357 9.18071158,21.5613887 11.28736,21.6016889 C9.54374564,22.9974001 7.38981713,23.755076 5.17216,23.7528 C4.78038743,23.752034 4.3889959,23.727874 4,23.6804444 C6.25181051,25.1522704 8.87191687,25.9329677 11.54752,25.9293333" id="Path" fill="#FFFFFF"></path>
    </g>
</svg>